<mxfile host="app.diagrams.net" modified="2022-09-27T07:12:02.882Z" agent="5.0 (Windows NT 10.0; Win64; x64) AppleWebKit/537.36 (KHTML, like Gecko) Chrome/105.0.0.0 Safari/537.36" etag="RpWxXny5bnKKlVwJRuCw" version="20.3.0" type="github">
  <diagram id="R8IiflEz0d23TfFEJtmY" name="第 1 页">
    <mxGraphModel dx="2214" dy="1193" grid="1" gridSize="10" guides="1" tooltips="1" connect="1" arrows="1" fold="1" page="1" pageScale="1" pageWidth="827" pageHeight="1169" math="0" shadow="0">
      <root>
        <mxCell id="0" />
        <mxCell id="1" parent="0" />
        <mxCell id="WAr3PEvsFhnmKJyq8Ucf-60" value="" style="rounded=1;whiteSpace=wrap;html=1;fillColor=#f5f5f5;fontColor=#333333;strokeColor=#666666;sketch=1;" vertex="1" parent="1">
          <mxGeometry x="680" y="1465" width="850" height="310" as="geometry" />
        </mxCell>
        <mxCell id="WAr3PEvsFhnmKJyq8Ucf-42" value="" style="rounded=1;whiteSpace=wrap;html=1;sketch=1;" vertex="1" parent="1">
          <mxGeometry x="30" y="700" width="670" height="440" as="geometry" />
        </mxCell>
        <mxCell id="WAr3PEvsFhnmKJyq8Ucf-18" value="" style="edgeStyle=orthogonalEdgeStyle;rounded=1;orthogonalLoop=1;jettySize=auto;html=1;sketch=1;" edge="1" parent="1" source="WAr3PEvsFhnmKJyq8Ucf-9" target="WAr3PEvsFhnmKJyq8Ucf-17">
          <mxGeometry relative="1" as="geometry" />
        </mxCell>
        <mxCell id="WAr3PEvsFhnmKJyq8Ucf-23" value="开发自测" style="edgeLabel;html=1;align=center;verticalAlign=middle;resizable=0;points=[];sketch=1;rounded=1;" vertex="1" connectable="0" parent="WAr3PEvsFhnmKJyq8Ucf-18">
          <mxGeometry x="-0.2895" y="1" relative="1" as="geometry">
            <mxPoint x="7" y="1" as="offset" />
          </mxGeometry>
        </mxCell>
        <mxCell id="WAr3PEvsFhnmKJyq8Ucf-9" value="devloper-A" style="shape=umlActor;verticalLabelPosition=bottom;verticalAlign=top;html=1;outlineConnect=0;sketch=1;rounded=1;" vertex="1" parent="1">
          <mxGeometry x="60" y="735" width="30" height="60" as="geometry" />
        </mxCell>
        <mxCell id="WAr3PEvsFhnmKJyq8Ucf-20" value="" style="edgeStyle=orthogonalEdgeStyle;rounded=1;orthogonalLoop=1;jettySize=auto;html=1;sketch=1;" edge="1" parent="1" source="WAr3PEvsFhnmKJyq8Ucf-10" target="WAr3PEvsFhnmKJyq8Ucf-19">
          <mxGeometry relative="1" as="geometry" />
        </mxCell>
        <mxCell id="WAr3PEvsFhnmKJyq8Ucf-24" value="开发自测" style="edgeLabel;html=1;align=center;verticalAlign=middle;resizable=0;points=[];sketch=1;rounded=1;" vertex="1" connectable="0" parent="WAr3PEvsFhnmKJyq8Ucf-20">
          <mxGeometry x="-0.6229" relative="1" as="geometry">
            <mxPoint x="27" as="offset" />
          </mxGeometry>
        </mxCell>
        <mxCell id="WAr3PEvsFhnmKJyq8Ucf-10" value="devloper-B" style="shape=umlActor;verticalLabelPosition=bottom;verticalAlign=top;html=1;outlineConnect=0;sketch=1;rounded=1;" vertex="1" parent="1">
          <mxGeometry x="60" y="885" width="30" height="60" as="geometry" />
        </mxCell>
        <mxCell id="WAr3PEvsFhnmKJyq8Ucf-22" value="" style="edgeStyle=orthogonalEdgeStyle;rounded=1;orthogonalLoop=1;jettySize=auto;html=1;sketch=1;" edge="1" parent="1" source="WAr3PEvsFhnmKJyq8Ucf-11" target="WAr3PEvsFhnmKJyq8Ucf-21">
          <mxGeometry relative="1" as="geometry" />
        </mxCell>
        <mxCell id="WAr3PEvsFhnmKJyq8Ucf-25" value="开发自测" style="edgeLabel;html=1;align=center;verticalAlign=middle;resizable=0;points=[];sketch=1;rounded=1;" vertex="1" connectable="0" parent="WAr3PEvsFhnmKJyq8Ucf-22">
          <mxGeometry x="-0.6324" y="2" relative="1" as="geometry">
            <mxPoint x="28" y="2" as="offset" />
          </mxGeometry>
        </mxCell>
        <mxCell id="WAr3PEvsFhnmKJyq8Ucf-11" value="devloper-C" style="shape=umlActor;verticalLabelPosition=bottom;verticalAlign=top;html=1;outlineConnect=0;sketch=1;rounded=1;" vertex="1" parent="1">
          <mxGeometry x="60" y="1025" width="30" height="60" as="geometry" />
        </mxCell>
        <mxCell id="WAr3PEvsFhnmKJyq8Ucf-12" value="&lt;h1&gt;迭代开发过程&lt;/h1&gt;&lt;p&gt;&lt;b&gt;1、需求1由devloper-A负责，&lt;/b&gt;&lt;/p&gt;&lt;p&gt;基于上一个版本创建临时功能分支：release/dev/feature1&lt;/p&gt;&lt;p&gt;&lt;b&gt;2、需求2由devloper-B负责，&lt;/b&gt;&lt;/p&gt;基于上一个版本创建临时功能分支：release/dev/feature2&lt;p&gt;&lt;b&gt;3、需求3由devloper-C负责，&lt;/b&gt;&lt;/p&gt;基于上一个版本创建临时功能分支：release/dev/feature3" style="text;html=1;strokeColor=none;fillColor=none;spacing=5;spacingTop=-20;whiteSpace=wrap;overflow=hidden;rounded=1;sketch=1;" vertex="1" parent="1">
          <mxGeometry x="40" y="440" width="550" height="200" as="geometry" />
        </mxCell>
        <mxCell id="WAr3PEvsFhnmKJyq8Ucf-27" style="edgeStyle=orthogonalEdgeStyle;rounded=1;orthogonalLoop=1;jettySize=auto;html=1;exitX=1;exitY=0.5;exitDx=0;exitDy=0;entryX=0;entryY=0.5;entryDx=0;entryDy=0;sketch=1;" edge="1" parent="1" source="WAr3PEvsFhnmKJyq8Ucf-17" target="WAr3PEvsFhnmKJyq8Ucf-26">
          <mxGeometry relative="1" as="geometry" />
        </mxCell>
        <mxCell id="WAr3PEvsFhnmKJyq8Ucf-17" value="commit to&amp;nbsp;&lt;span style=&quot;text-align: left;&quot;&gt;release/dev/feature1&lt;/span&gt;&lt;br&gt;提交代码到自己的需求开发分支" style="whiteSpace=wrap;html=1;verticalAlign=top;sketch=1;rounded=1;" vertex="1" parent="1">
          <mxGeometry x="210" y="730" width="150" height="70" as="geometry" />
        </mxCell>
        <mxCell id="WAr3PEvsFhnmKJyq8Ucf-29" style="edgeStyle=orthogonalEdgeStyle;rounded=1;orthogonalLoop=1;jettySize=auto;html=1;exitX=1;exitY=0.5;exitDx=0;exitDy=0;entryX=0;entryY=0.5;entryDx=0;entryDy=0;sketch=1;" edge="1" parent="1" source="WAr3PEvsFhnmKJyq8Ucf-21" target="WAr3PEvsFhnmKJyq8Ucf-26">
          <mxGeometry relative="1" as="geometry" />
        </mxCell>
        <mxCell id="WAr3PEvsFhnmKJyq8Ucf-30" style="edgeStyle=orthogonalEdgeStyle;rounded=1;orthogonalLoop=1;jettySize=auto;html=1;exitX=1;exitY=0.5;exitDx=0;exitDy=0;entryX=0;entryY=0.5;entryDx=0;entryDy=0;sketch=1;" edge="1" parent="1" source="WAr3PEvsFhnmKJyq8Ucf-19" target="WAr3PEvsFhnmKJyq8Ucf-26">
          <mxGeometry relative="1" as="geometry" />
        </mxCell>
        <mxCell id="WAr3PEvsFhnmKJyq8Ucf-32" value="合并功能分支的代码&lt;br&gt;cherrypick到test" style="edgeLabel;html=1;align=center;verticalAlign=middle;resizable=0;points=[];sketch=1;rounded=1;" vertex="1" connectable="0" parent="WAr3PEvsFhnmKJyq8Ucf-30">
          <mxGeometry x="-0.2437" y="2" relative="1" as="geometry">
            <mxPoint x="21" y="2" as="offset" />
          </mxGeometry>
        </mxCell>
        <mxCell id="WAr3PEvsFhnmKJyq8Ucf-19" value="commit to&amp;nbsp;&lt;span style=&quot;text-align: left;&quot;&gt;release/dev/feature2&lt;/span&gt;&lt;br&gt;提交代码到自己的需求开发分支" style="whiteSpace=wrap;html=1;verticalAlign=top;sketch=1;rounded=1;" vertex="1" parent="1">
          <mxGeometry x="210" y="880" width="150" height="70" as="geometry" />
        </mxCell>
        <mxCell id="WAr3PEvsFhnmKJyq8Ucf-21" value="commit to&amp;nbsp;&lt;span style=&quot;text-align: left;&quot;&gt;release/dev/feature3&lt;/span&gt;&lt;br&gt;提交代码到自己的需求开发分支" style="whiteSpace=wrap;html=1;verticalAlign=top;sketch=1;rounded=1;" vertex="1" parent="1">
          <mxGeometry x="210" y="1020" width="150" height="70" as="geometry" />
        </mxCell>
        <mxCell id="WAr3PEvsFhnmKJyq8Ucf-34" value="" style="edgeStyle=orthogonalEdgeStyle;rounded=1;orthogonalLoop=1;jettySize=auto;html=1;sketch=1;" edge="1" parent="1" source="WAr3PEvsFhnmKJyq8Ucf-26" target="WAr3PEvsFhnmKJyq8Ucf-33">
          <mxGeometry relative="1" as="geometry" />
        </mxCell>
        <mxCell id="WAr3PEvsFhnmKJyq8Ucf-35" value="联调完成准备提测需求" style="edgeLabel;html=1;align=center;verticalAlign=middle;resizable=0;points=[];sketch=1;rounded=1;" vertex="1" connectable="0" parent="WAr3PEvsFhnmKJyq8Ucf-34">
          <mxGeometry x="-0.2638" relative="1" as="geometry">
            <mxPoint x="17" as="offset" />
          </mxGeometry>
        </mxCell>
        <mxCell id="WAr3PEvsFhnmKJyq8Ucf-26" value="开发联调环境&lt;br&gt;release/test/2.1.0" style="rounded=1;whiteSpace=wrap;html=1;sketch=1;" vertex="1" parent="1">
          <mxGeometry x="570" y="885" width="120" height="60" as="geometry" />
        </mxCell>
        <mxCell id="WAr3PEvsFhnmKJyq8Ucf-37" value="" style="edgeStyle=orthogonalEdgeStyle;rounded=1;orthogonalLoop=1;jettySize=auto;html=1;sketch=1;" edge="1" parent="1" source="WAr3PEvsFhnmKJyq8Ucf-33" target="WAr3PEvsFhnmKJyq8Ucf-36">
          <mxGeometry relative="1" as="geometry" />
        </mxCell>
        <mxCell id="WAr3PEvsFhnmKJyq8Ucf-38" value="评审通过，合并到uat，提测" style="edgeLabel;html=1;align=center;verticalAlign=middle;resizable=0;points=[];sketch=1;rounded=1;" vertex="1" connectable="0" parent="WAr3PEvsFhnmKJyq8Ucf-37">
          <mxGeometry x="-0.1887" y="1" relative="1" as="geometry">
            <mxPoint x="11" y="1" as="offset" />
          </mxGeometry>
        </mxCell>
        <mxCell id="WAr3PEvsFhnmKJyq8Ucf-33" value="代码评审" style="rounded=1;whiteSpace=wrap;html=1;fillColor=#f8cecc;strokeColor=#b85450;sketch=1;" vertex="1" parent="1">
          <mxGeometry x="860" y="885" width="120" height="60" as="geometry" />
        </mxCell>
        <mxCell id="WAr3PEvsFhnmKJyq8Ucf-43" style="edgeStyle=orthogonalEdgeStyle;rounded=1;orthogonalLoop=1;jettySize=auto;html=1;exitX=0.5;exitY=0;exitDx=0;exitDy=0;sketch=1;" edge="1" parent="1" source="WAr3PEvsFhnmKJyq8Ucf-36">
          <mxGeometry relative="1" as="geometry">
            <mxPoint x="700" y="820" as="targetPoint" />
            <Array as="points">
              <mxPoint x="1210" y="820" />
            </Array>
          </mxGeometry>
        </mxCell>
        <mxCell id="WAr3PEvsFhnmKJyq8Ucf-44" value="提交bug，开发人员创建bugfix分支，进行bug修复" style="edgeLabel;html=1;align=center;verticalAlign=middle;resizable=0;points=[];sketch=1;rounded=1;" vertex="1" connectable="0" parent="WAr3PEvsFhnmKJyq8Ucf-43">
          <mxGeometry x="0.3775" relative="1" as="geometry">
            <mxPoint x="61" as="offset" />
          </mxGeometry>
        </mxCell>
        <mxCell id="WAr3PEvsFhnmKJyq8Ucf-36" value="集成测试环境&lt;br&gt;release/uat/2.1.0" style="rounded=1;whiteSpace=wrap;html=1;sketch=1;" vertex="1" parent="1">
          <mxGeometry x="1150" y="885" width="120" height="60" as="geometry" />
        </mxCell>
        <mxCell id="WAr3PEvsFhnmKJyq8Ucf-39" value="&lt;h1&gt;代码评审&lt;/h1&gt;&lt;p&gt;为什么要执行代码评审&lt;/p&gt;&lt;p&gt;1.&amp;nbsp; &amp;nbsp; &amp;nbsp; 代码评审的最大好处是，当你知道你的每一行代码都有另外一个人看，自然而然会更加卖力的表现，拿出最好的状态编码，从而间接提升代码的质量；&lt;/p&gt;&lt;p&gt;2.&amp;nbsp; &amp;nbsp; &amp;nbsp; 代码评审可以及时发现一些容易发现的BUG，而不必将发现BUG的时间点推迟到测试阶段；&lt;/p&gt;&lt;p&gt;3.&amp;nbsp; &amp;nbsp; &amp;nbsp; 代码评审可以保证至少有两个人都理解任何一份代码。当出现员工休假，离职等情况的时候，至少保证团队的代码不会陷入无人理解或者无人处理的状况&lt;/p&gt;&lt;p&gt;&lt;br&gt;&lt;/p&gt;" style="text;html=1;strokeColor=none;fillColor=none;spacing=5;spacingTop=-20;whiteSpace=wrap;overflow=hidden;rounded=1;sketch=1;" vertex="1" parent="1">
          <mxGeometry x="30" y="1200" width="750" height="200" as="geometry" />
        </mxCell>
        <mxCell id="WAr3PEvsFhnmKJyq8Ucf-40" value="&lt;h1&gt;注意事项&lt;/h1&gt;&lt;p&gt;&lt;b&gt;1、分支命名规范：&lt;/b&gt;&lt;/p&gt;&lt;p&gt;本地分支必须命名为&amp;nbsp; release/dev/feature-xxx ，release/dev/bugfix-xxx&lt;/p&gt;&lt;p&gt;&lt;b&gt;2、提交规范&lt;/b&gt;&lt;/p&gt;&lt;p&gt;git的commitUser和Email必须为OA账号和员工邮箱&lt;br&gt;&lt;/p&gt;&lt;p&gt;git的提交内容需要按照模板填写&lt;/p&gt;" style="text;html=1;strokeColor=none;fillColor=none;spacing=5;spacingTop=-20;whiteSpace=wrap;overflow=hidden;rounded=1;sketch=1;" vertex="1" parent="1">
          <mxGeometry x="670" y="440" width="450" height="180" as="geometry" />
        </mxCell>
        <mxCell id="WAr3PEvsFhnmKJyq8Ucf-47" value="" style="edgeStyle=orthogonalEdgeStyle;rounded=1;orthogonalLoop=1;jettySize=auto;html=1;sketch=1;" edge="1" parent="1" source="WAr3PEvsFhnmKJyq8Ucf-45" target="WAr3PEvsFhnmKJyq8Ucf-46">
          <mxGeometry relative="1" as="geometry" />
        </mxCell>
        <mxCell id="WAr3PEvsFhnmKJyq8Ucf-45" value="Developer" style="shape=umlActor;verticalLabelPosition=bottom;verticalAlign=top;html=1;outlineConnect=0;sketch=1;rounded=1;" vertex="1" parent="1">
          <mxGeometry x="80" y="1590" width="30" height="60" as="geometry" />
        </mxCell>
        <mxCell id="WAr3PEvsFhnmKJyq8Ucf-49" value="" style="edgeStyle=orthogonalEdgeStyle;rounded=1;orthogonalLoop=1;jettySize=auto;html=1;sketch=1;" edge="1" parent="1" source="WAr3PEvsFhnmKJyq8Ucf-46" target="WAr3PEvsFhnmKJyq8Ucf-48">
          <mxGeometry relative="1" as="geometry" />
        </mxCell>
        <mxCell id="WAr3PEvsFhnmKJyq8Ucf-46" value="本地开发自测完成，线上联调也完成，准备提测" style="whiteSpace=wrap;html=1;verticalAlign=top;sketch=1;rounded=1;" vertex="1" parent="1">
          <mxGeometry x="180" y="1590" width="120" height="60" as="geometry" />
        </mxCell>
        <mxCell id="WAr3PEvsFhnmKJyq8Ucf-51" value="" style="edgeStyle=orthogonalEdgeStyle;rounded=1;orthogonalLoop=1;jettySize=auto;html=1;sketch=1;" edge="1" parent="1" source="WAr3PEvsFhnmKJyq8Ucf-48" target="WAr3PEvsFhnmKJyq8Ucf-50">
          <mxGeometry relative="1" as="geometry" />
        </mxCell>
        <mxCell id="WAr3PEvsFhnmKJyq8Ucf-48" value="进入云端部署平台点击提测按钮(此处应该检查评审问题的解决情况)" style="whiteSpace=wrap;html=1;verticalAlign=top;sketch=1;rounded=1;" vertex="1" parent="1">
          <mxGeometry x="350" y="1590" width="160" height="60" as="geometry" />
        </mxCell>
        <mxCell id="WAr3PEvsFhnmKJyq8Ucf-53" value="" style="edgeStyle=orthogonalEdgeStyle;rounded=1;orthogonalLoop=1;jettySize=auto;html=1;sketch=1;" edge="1" parent="1" source="WAr3PEvsFhnmKJyq8Ucf-50" target="WAr3PEvsFhnmKJyq8Ucf-52">
          <mxGeometry relative="1" as="geometry">
            <Array as="points">
              <mxPoint x="710" y="1620" />
              <mxPoint x="710" y="1680" />
            </Array>
          </mxGeometry>
        </mxCell>
        <mxCell id="WAr3PEvsFhnmKJyq8Ucf-58" value="" style="edgeStyle=orthogonalEdgeStyle;rounded=1;orthogonalLoop=1;jettySize=auto;html=1;sketch=1;" edge="1" parent="1" source="WAr3PEvsFhnmKJyq8Ucf-50" target="WAr3PEvsFhnmKJyq8Ucf-57">
          <mxGeometry relative="1" as="geometry">
            <Array as="points">
              <mxPoint x="710" y="1620" />
              <mxPoint x="710" y="1575" />
            </Array>
          </mxGeometry>
        </mxCell>
        <mxCell id="WAr3PEvsFhnmKJyq8Ucf-76" value="是" style="edgeLabel;html=1;align=center;verticalAlign=middle;resizable=0;points=[];sketch=1;rounded=1;" vertex="1" connectable="0" parent="WAr3PEvsFhnmKJyq8Ucf-58">
          <mxGeometry x="-0.8011" y="-2" relative="1" as="geometry">
            <mxPoint as="offset" />
          </mxGeometry>
        </mxCell>
        <mxCell id="WAr3PEvsFhnmKJyq8Ucf-74" value="" style="edgeStyle=orthogonalEdgeStyle;rounded=1;orthogonalLoop=1;jettySize=auto;html=1;sketch=1;" edge="1" parent="1" source="WAr3PEvsFhnmKJyq8Ucf-50" target="WAr3PEvsFhnmKJyq8Ucf-73">
          <mxGeometry relative="1" as="geometry" />
        </mxCell>
        <mxCell id="WAr3PEvsFhnmKJyq8Ucf-75" value="否" style="edgeLabel;html=1;align=center;verticalAlign=middle;resizable=0;points=[];sketch=1;rounded=1;" vertex="1" connectable="0" parent="WAr3PEvsFhnmKJyq8Ucf-74">
          <mxGeometry x="-0.2" y="2" relative="1" as="geometry">
            <mxPoint as="offset" />
          </mxGeometry>
        </mxCell>
        <mxCell id="WAr3PEvsFhnmKJyq8Ucf-50" value="是否开启了代码评审的流程" style="rhombus;whiteSpace=wrap;html=1;verticalAlign=middle;fillColor=#fff2cc;strokeColor=#d6b656;sketch=1;rounded=1;" vertex="1" parent="1">
          <mxGeometry x="550" y="1580" width="80" height="80" as="geometry" />
        </mxCell>
        <mxCell id="WAr3PEvsFhnmKJyq8Ucf-55" value="" style="edgeStyle=orthogonalEdgeStyle;rounded=1;orthogonalLoop=1;jettySize=auto;html=1;sketch=1;" edge="1" parent="1" source="WAr3PEvsFhnmKJyq8Ucf-52" target="WAr3PEvsFhnmKJyq8Ucf-54">
          <mxGeometry relative="1" as="geometry" />
        </mxCell>
        <mxCell id="WAr3PEvsFhnmKJyq8Ucf-84" value="生成代码&lt;br&gt;差异点" style="edgeLabel;html=1;align=center;verticalAlign=middle;resizable=0;points=[];fontSize=11;sketch=1;rounded=1;" vertex="1" connectable="0" parent="WAr3PEvsFhnmKJyq8Ucf-55">
          <mxGeometry x="-0.2677" y="-1" relative="1" as="geometry">
            <mxPoint x="11" y="-1" as="offset" />
          </mxGeometry>
        </mxCell>
        <mxCell id="WAr3PEvsFhnmKJyq8Ucf-52" value="平台自动生成评审分支&lt;span style=&quot;font-size: 11px; background-color: rgb(255, 255, 255);&quot;&gt;release/review/2.1.0-i+1&lt;/span&gt;&lt;br&gt;，并且提交流程到评审人" style="whiteSpace=wrap;html=1;sketch=1;rounded=1;" vertex="1" parent="1">
          <mxGeometry x="735" y="1650" width="140" height="60" as="geometry" />
        </mxCell>
        <mxCell id="WAr3PEvsFhnmKJyq8Ucf-66" style="edgeStyle=orthogonalEdgeStyle;rounded=1;orthogonalLoop=1;jettySize=auto;html=1;exitX=1;exitY=0.5;exitDx=0;exitDy=0;entryX=0;entryY=0.5;entryDx=0;entryDy=0;sketch=1;" edge="1" parent="1" source="WAr3PEvsFhnmKJyq8Ucf-54" target="WAr3PEvsFhnmKJyq8Ucf-59">
          <mxGeometry relative="1" as="geometry" />
        </mxCell>
        <mxCell id="WAr3PEvsFhnmKJyq8Ucf-54" value="评审人对代码进行评审，可选中有问题的代码，并且平台提供代码最后修改人作为参考，自动生成issue，给到对应负责人" style="whiteSpace=wrap;html=1;sketch=1;rounded=1;" vertex="1" parent="1">
          <mxGeometry x="960" y="1650" width="170" height="60" as="geometry" />
        </mxCell>
        <mxCell id="WAr3PEvsFhnmKJyq8Ucf-68" style="edgeStyle=orthogonalEdgeStyle;rounded=1;orthogonalLoop=1;jettySize=auto;html=1;exitX=1;exitY=0.5;exitDx=0;exitDy=0;entryX=0.5;entryY=0;entryDx=0;entryDy=0;sketch=1;" edge="1" parent="1" source="WAr3PEvsFhnmKJyq8Ucf-57" target="WAr3PEvsFhnmKJyq8Ucf-59">
          <mxGeometry relative="1" as="geometry" />
        </mxCell>
        <mxCell id="WAr3PEvsFhnmKJyq8Ucf-57" value="根据安全扫描，质量扫描的结果自动生成issue，并根据代码对应的最后一次修改的人员自动提交issue" style="whiteSpace=wrap;html=1;sketch=1;rounded=1;" vertex="1" parent="1">
          <mxGeometry x="790" y="1540" width="300" height="70" as="geometry" />
        </mxCell>
        <mxCell id="WAr3PEvsFhnmKJyq8Ucf-64" value="" style="edgeStyle=orthogonalEdgeStyle;rounded=1;orthogonalLoop=1;jettySize=auto;html=1;sketch=1;" edge="1" parent="1" source="WAr3PEvsFhnmKJyq8Ucf-59" target="WAr3PEvsFhnmKJyq8Ucf-63">
          <mxGeometry relative="1" as="geometry" />
        </mxCell>
        <mxCell id="WAr3PEvsFhnmKJyq8Ucf-79" style="edgeStyle=orthogonalEdgeStyle;rounded=1;orthogonalLoop=1;jettySize=auto;html=1;exitX=0.75;exitY=0;exitDx=0;exitDy=0;entryX=0.5;entryY=0;entryDx=0;entryDy=0;entryPerimeter=0;dashed=1;sketch=1;" edge="1" parent="1" source="WAr3PEvsFhnmKJyq8Ucf-59" target="WAr3PEvsFhnmKJyq8Ucf-45">
          <mxGeometry relative="1" as="geometry">
            <Array as="points">
              <mxPoint x="1220" y="1440" />
              <mxPoint x="95" y="1440" />
            </Array>
          </mxGeometry>
        </mxCell>
        <mxCell id="WAr3PEvsFhnmKJyq8Ucf-80" value="开发人员重新修改代码，同时对issue进行标记" style="edgeLabel;html=1;align=center;verticalAlign=middle;resizable=0;points=[];sketch=1;rounded=1;" vertex="1" connectable="0" parent="WAr3PEvsFhnmKJyq8Ucf-79">
          <mxGeometry x="0.3108" y="-3" relative="1" as="geometry">
            <mxPoint as="offset" />
          </mxGeometry>
        </mxCell>
        <mxCell id="WAr3PEvsFhnmKJyq8Ucf-59" value="开发人员修改" style="rounded=1;whiteSpace=wrap;html=1;sketch=1;" vertex="1" parent="1">
          <mxGeometry x="1150" y="1650" width="120" height="60" as="geometry" />
        </mxCell>
        <mxCell id="WAr3PEvsFhnmKJyq8Ucf-61" value="代码评审流程" style="text;strokeColor=none;fillColor=none;html=1;fontSize=24;fontStyle=1;verticalAlign=middle;align=center;sketch=1;rounded=1;" vertex="1" parent="1">
          <mxGeometry x="1020" y="1480" width="100" height="40" as="geometry" />
        </mxCell>
        <mxCell id="WAr3PEvsFhnmKJyq8Ucf-67" style="edgeStyle=orthogonalEdgeStyle;rounded=1;orthogonalLoop=1;jettySize=auto;html=1;exitX=0.5;exitY=1;exitDx=0;exitDy=0;entryX=0.5;entryY=1;entryDx=0;entryDy=0;sketch=1;" edge="1" parent="1" source="WAr3PEvsFhnmKJyq8Ucf-63" target="WAr3PEvsFhnmKJyq8Ucf-54">
          <mxGeometry relative="1" as="geometry" />
        </mxCell>
        <mxCell id="WAr3PEvsFhnmKJyq8Ucf-72" value="否" style="edgeLabel;html=1;align=center;verticalAlign=middle;resizable=0;points=[];sketch=1;rounded=1;" vertex="1" connectable="0" parent="WAr3PEvsFhnmKJyq8Ucf-67">
          <mxGeometry x="-0.2935" y="1" relative="1" as="geometry">
            <mxPoint x="76" as="offset" />
          </mxGeometry>
        </mxCell>
        <mxCell id="WAr3PEvsFhnmKJyq8Ucf-70" value="" style="edgeStyle=orthogonalEdgeStyle;rounded=1;orthogonalLoop=1;jettySize=auto;html=1;sketch=1;" edge="1" parent="1" source="WAr3PEvsFhnmKJyq8Ucf-63" target="WAr3PEvsFhnmKJyq8Ucf-69">
          <mxGeometry relative="1" as="geometry" />
        </mxCell>
        <mxCell id="WAr3PEvsFhnmKJyq8Ucf-71" value="是" style="edgeLabel;html=1;align=center;verticalAlign=middle;resizable=0;points=[];sketch=1;rounded=1;" vertex="1" connectable="0" parent="WAr3PEvsFhnmKJyq8Ucf-70">
          <mxGeometry x="-0.2186" relative="1" as="geometry">
            <mxPoint as="offset" />
          </mxGeometry>
        </mxCell>
        <mxCell id="WAr3PEvsFhnmKJyq8Ucf-63" value="评审是否通过" style="rhombus;whiteSpace=wrap;html=1;rounded=1;fillColor=#fff2cc;strokeColor=#d6b656;sketch=1;" vertex="1" parent="1">
          <mxGeometry x="1300" y="1640" width="80" height="80" as="geometry" />
        </mxCell>
        <mxCell id="WAr3PEvsFhnmKJyq8Ucf-77" style="edgeStyle=orthogonalEdgeStyle;rounded=1;orthogonalLoop=1;jettySize=auto;html=1;exitX=0.5;exitY=1;exitDx=0;exitDy=0;entryX=1;entryY=0.75;entryDx=0;entryDy=0;sketch=1;" edge="1" parent="1" source="WAr3PEvsFhnmKJyq8Ucf-69" target="WAr3PEvsFhnmKJyq8Ucf-73">
          <mxGeometry relative="1" as="geometry" />
        </mxCell>
        <mxCell id="WAr3PEvsFhnmKJyq8Ucf-69" value="结束代码评审" style="ellipse;whiteSpace=wrap;html=1;rounded=1;sketch=1;" vertex="1" parent="1">
          <mxGeometry x="1420" y="1655" width="90" height="50" as="geometry" />
        </mxCell>
        <mxCell id="WAr3PEvsFhnmKJyq8Ucf-73" value="合并分支到集成测试分支" style="whiteSpace=wrap;html=1;fillColor=#f8cecc;strokeColor=#b85450;sketch=1;rounded=1;" vertex="1" parent="1">
          <mxGeometry x="530" y="1770" width="120" height="60" as="geometry" />
        </mxCell>
        <mxCell id="WAr3PEvsFhnmKJyq8Ucf-83" value="&lt;font style=&quot;font-size: 11px;&quot;&gt;分支自动生成需要校验之前的评审记录，每一次提测都会在前一个评审分支+1，如果第一次提测，那么编号就是1&lt;/font&gt;" style="text;html=1;strokeColor=#6c8ebf;fillColor=#dae8fc;align=center;verticalAlign=middle;whiteSpace=wrap;rounded=1;fontSize=10;sketch=1;" vertex="1" parent="1">
          <mxGeometry x="700" y="1720" width="230" height="50" as="geometry" />
        </mxCell>
      </root>
    </mxGraphModel>
  </diagram>
</mxfile>
